<?xml version="1.0" encoding="utf-8"?>
<!-- Generator: Adobe Illustrator 16.0.0, SVG Export Plug-In . SVG Version: 6.00 Build 0)  -->
<!DOCTYPE svg PUBLIC "-//W3C//DTD SVG 1.1//EN" "http://www.w3.org/Graphics/SVG/1.1/DTD/svg11.dtd">
<svg version="1.1" id="Layer_1" xmlns="http://www.w3.org/2000/svg" xmlns:xlink="http://www.w3.org/1999/xlink" x="0px" y="0px"
	 width="25px" height="24px" viewBox="0 0 25 24" enable-background="new 0 0 25 24" xml:space="preserve">
<g>
	<path fill="#7F848C" d="M17.25,2.806V2c0-0.414-0.336-0.75-0.75-0.75S15.75,1.586,15.75,2v0.75h-6.5V2
		c0-0.414-0.336-0.75-0.75-0.75S7.75,1.586,7.75,2v0.806c-3.178,0.279-5,2.304-5,5.694V17c0,3.654,2.096,5.75,5.75,5.75h8
		c3.654,0,5.75-2.096,5.75-5.75V8.5C22.25,5.11,20.428,3.085,17.25,2.806z M20.75,17c0,2.859-1.391,4.25-4.25,4.25h-8
		c-2.86,0-4.25-1.391-4.25-4.25V8.5c0-2.593,1.155-3.965,3.5-4.201V5c0,0.414,0.336,0.75,0.75,0.75S9.25,5.414,9.25,5V4.25h6.5V5
		c0,0.414,0.336,0.75,0.75,0.75S17.25,5.414,17.25,5V4.299c2.344,0.236,3.5,1.608,3.5,4.201V17z"/>
	<path fill="#7F848C" d="M16.5,10.25h-8c-0.414,0-0.75,0.336-0.75,0.75s0.336,0.75,0.75,0.75h8c0.414,0,0.75-0.336,0.75-0.75
		S16.914,10.25,16.5,10.25z"/>
	<path fill="#7F848C" d="M12.5,15.25h-4c-0.414,0-0.75,0.336-0.75,0.75s0.336,0.75,0.75,0.75h4c0.414,0,0.75-0.336,0.75-0.75
		S12.914,15.25,12.5,15.25z"/>
</g>
</svg>
