<?xml version="1.0" encoding="utf-8"?>
<!-- Generator: Adobe Illustrator 16.0.0, SVG Export Plug-In . SVG Version: 6.00 Build 0)  -->
<!DOCTYPE svg PUBLIC "-//W3C//DTD SVG 1.1//EN" "http://www.w3.org/Graphics/SVG/1.1/DTD/svg11.dtd">
<svg version="1.1" id="Layer_1" xmlns="http://www.w3.org/2000/svg" xmlns:xlink="http://www.w3.org/1999/xlink" x="0px" y="0px"
	 width="25px" height="24px" viewBox="0 0 25 24" enable-background="new 0 0 25 24" xml:space="preserve">
<g>
	<path fill="#7F848C" d="M22.231,11.82l-0.175-0.23c-0.095-0.114-0.21-0.204-0.316-0.305V9.68c0-3.832-1.168-5-5-5h-2.551
		c-0.47,0-0.485-0.021-0.759-0.379L12.16,2.6C11.562,1.803,11.055,1.28,9.52,1.28H8.25c-3.832,0-5,1.168-5,5v5.008
		c-0.096,0.093-0.203,0.175-0.287,0.278l-0.069,0.076c-0.618,0.775-0.905,1.744-0.811,2.717l0.401,5.014
		c0.147,1.505,0.331,3.377,3.727,3.377h12.58c3.396,0,3.579-1.873,3.728-3.391l0.398-4.979
		C23.014,13.463,22.771,12.563,22.231,11.82z M4.75,6.28c0-2.977,0.523-3.5,3.5-3.5h1.27c0.9,0,1.004,0.138,1.439,0.718l1.285,1.719
		c0.43,0.563,0.821,0.962,1.946,0.962h2.551c2.977,0,3.5,0.523,3.5,3.5v0.739c-0.339-0.1-0.688-0.169-1.051-0.169H5.81
		c-0.367,0-0.719,0.07-1.06,0.17V6.28z M21.422,14.24l-0.398,4.986c-0.145,1.473-0.198,2.023-2.233,2.023H6.21
		c-2.035,0-2.089-0.551-2.232-2.01l-0.401-5.013c-0.056-0.58,0.108-1.152,0.462-1.615l0.041-0.047
		c0.426-0.518,1.056-0.815,1.73-0.815h13.379c0.612,0,1.189,0.246,1.635,0.711l0.1,0.119C21.31,13.044,21.487,13.627,21.422,14.24z"
		/>
	<path fill="#7F848C" d="M15.07,16.25H9.93c-0.414,0-0.75,0.336-0.75,0.75s0.336,0.75,0.75,0.75h5.141c0.414,0,0.75-0.336,0.75-0.75
		S15.484,16.25,15.07,16.25z"/>
</g>
</svg>
