<?xml version="1.0" encoding="utf-8"?>
<!-- Generator: Adobe Illustrator 16.0.0, SVG Export Plug-In . SVG Version: 6.00 Build 0)  -->
<!DOCTYPE svg PUBLIC "-//W3C//DTD SVG 1.1//EN" "http://www.w3.org/Graphics/SVG/1.1/DTD/svg11.dtd">
<svg version="1.1" id="Layer_1" xmlns="http://www.w3.org/2000/svg" xmlns:xlink="http://www.w3.org/1999/xlink" x="0px" y="0px"
	 width="25px" height="24px" viewBox="0 0 25 24" enable-background="new 0 0 25 24" xml:space="preserve">
<polygon fill="#5C8B69" points="20.707,7.5 14.999,1.792 15,7.5 "/>
<g>
	<path fill="#5C8B69" d="M12.5,13.76h-0.583v3.332H12.5c0.156,0,0.302-0.061,0.412-0.17c0.109-0.109,0.172-0.26,0.172-0.412v-2.168
		c0-0.152-0.063-0.303-0.172-0.412C12.802,13.82,12.656,13.76,12.5,13.76z"/>
	<path fill="#5C8B69" d="M8.708,13.76H8.125v1.166h0.583c0.156,0,0.302-0.061,0.413-0.171c0.109-0.11,0.17-0.257,0.17-0.413
		s-0.061-0.302-0.17-0.412C9.011,13.82,8.865,13.76,8.708,13.76z"/>
	<path fill="#5C8B69" d="M20.999,9.971l-0.01-0.146c-0.039-0.332-0.19-0.646-0.43-0.885c-0.237-0.237-0.551-0.389-0.913-0.431
		L19.5,8.5l-3.981,0l-0.137-0.005c-0.356-0.028-0.692-0.183-0.944-0.437c-0.253-0.253-0.407-0.59-0.433-0.925l-0.006-4.163
		l-0.01-0.146c-0.039-0.332-0.19-0.646-0.43-0.885c-0.237-0.237-0.552-0.39-0.913-0.431L7.486,1.5L7.295,1.506
		C6.4,1.559,5.568,1.947,4.954,2.599C4.339,3.251,4,4.104,4,5v14.014l0.006,0.191c0.053,0.896,0.441,1.728,1.093,2.342
		S6.604,22.5,7.5,22.5h10.007l0.198-0.006c0.896-0.053,1.728-0.44,2.342-1.093S21,19.896,21,19L20.999,9.971z M9.828,15.462
		c-0.3,0.299-0.697,0.464-1.12,0.464H8.125v1.666c0,0.276-0.224,0.5-0.5,0.5s-0.5-0.224-0.5-0.5V13.26c0-0.276,0.224-0.5,0.5-0.5
		h1.083c0.423,0,0.82,0.164,1.119,0.463c0.299,0.299,0.464,0.696,0.464,1.119C10.292,14.766,10.127,15.163,9.828,15.462z
		 M14.084,16.51c0,0.416-0.169,0.824-0.465,1.119c-0.299,0.299-0.696,0.463-1.119,0.463h-1.083c-0.276,0-0.5-0.224-0.5-0.5V13.26
		c0-0.276,0.224-0.5,0.5-0.5H12.5c0.423,0,0.82,0.164,1.119,0.463c0.296,0.295,0.465,0.703,0.465,1.119V16.51z M17.375,13.76h-1.666
		v1.166h1.125c0.276,0,0.5,0.224,0.5,0.5s-0.224,0.5-0.5,0.5h-1.125v1.666c0,0.276-0.224,0.5-0.5,0.5s-0.5-0.224-0.5-0.5V13.26
		c0-0.276,0.224-0.5,0.5-0.5h2.166c0.276,0,0.5,0.224,0.5,0.5S17.651,13.76,17.375,13.76z"/>
</g>
</svg>
