<?xml version="1.0" encoding="utf-8"?>
<!-- Generator: Adobe Illustrator 16.0.0, SVG Export Plug-In . SVG Version: 6.00 Build 0)  -->
<!DOCTYPE svg PUBLIC "-//W3C//DTD SVG 1.1//EN" "http://www.w3.org/Graphics/SVG/1.1/DTD/svg11.dtd">
<svg version="1.1" id="Layer_1" xmlns="http://www.w3.org/2000/svg" xmlns:xlink="http://www.w3.org/1999/xlink" x="0px" y="0px"
	 width="25px" height="24px" viewBox="0 0 25 24" enable-background="new 0 0 25 24" xml:space="preserve">
<g>
	<path fill="#7F848C" d="M8.368,21.523c-2.957,0-4.868-2.341-4.868-5.963V8.44c0-3.622,1.911-5.963,4.868-5.963
		c1.146,0,2.354,0.362,3.592,1.077l6.18,3.56c2.176,1.255,3.374,2.991,3.373,4.887c0,1.896-1.197,3.631-3.372,4.885l-6.182,3.561
		C10.722,21.161,9.513,21.523,8.368,21.523z M8.368,4.477C6.572,4.477,5.5,5.958,5.5,8.44v7.121c0,2.481,1.072,3.963,2.868,3.963
		c0.779,0,1.675-0.28,2.592-0.81l6.182-3.561c1.529-0.882,2.371-2.002,2.371-3.153c0.001-1.151-0.842-2.271-2.372-3.154l-6.18-3.56
		C10.043,4.757,9.146,4.477,8.368,4.477z"/>
</g>
</svg>
