<?xml version="1.0" encoding="utf-8"?>
<!-- Generator: Adobe Illustrator 16.0.0, SVG Export Plug-In . SVG Version: 6.00 Build 0)  -->
<!DOCTYPE svg PUBLIC "-//W3C//DTD SVG 1.1//EN" "http://www.w3.org/Graphics/SVG/1.1/DTD/svg11.dtd">
<svg version="1.1" id="Layer_1" xmlns="http://www.w3.org/2000/svg" xmlns:xlink="http://www.w3.org/1999/xlink" x="0px" y="0px"
	 width="24.219px" height="23.65px" viewBox="-1.219 -1.65 24.219 23.65" enable-background="new -1.219 -1.65 24.219 23.65"
	 xml:space="preserve">
<g>
	<path fill="#7F848C" d="M21.085,7.476l-6.952-6.954c-0.861-0.857-2.027-1.34-3.243-1.34c-1.215,0-2.381,0.482-3.241,1.34
		L0.696,7.476C0.44,7.73,0.237,8.033,0.098,8.367C-0.041,8.7-0.111,9.059-0.11,9.42v8.998c0,0.73,0.29,1.43,0.806,1.945
		s1.215,0.805,1.944,0.805h16.5c0.729,0,1.43-0.289,1.945-0.805s0.805-1.215,0.805-1.945V9.42c0.002-0.361-0.069-0.72-0.207-1.053
		C21.545,8.033,21.342,7.73,21.085,7.476z M13.641,19.335h-5.5v-3.606c0-0.729,0.29-1.428,0.806-1.944
		c0.516-0.516,1.215-0.806,1.944-0.806s1.43,0.29,1.946,0.806c0.516,0.517,0.805,1.216,0.805,1.944V19.335z M20.058,18.418
		c0,0.244-0.097,0.477-0.269,0.648s-0.405,0.269-0.648,0.269h-3.666v-3.606c0-1.215-0.483-2.381-1.343-3.24
		s-2.025-1.343-3.242-1.343c-1.216,0-2.381,0.483-3.241,1.343c-0.859,0.859-1.342,2.025-1.342,3.24v3.606H2.64
		c-0.243,0-0.477-0.097-0.648-0.269s-0.269-0.404-0.269-0.648V9.42c0.001-0.243,0.098-0.476,0.269-0.648L8.945,1.82
		c0.517-0.514,1.216-0.803,1.945-0.803s1.429,0.289,1.946,0.803l6.953,6.954c0.17,0.172,0.268,0.403,0.269,0.646V18.418z"/>
</g>
</svg>
